<svg width="158" height="37" viewBox="0 0 158 37" fill="none" xmlns="http://www.w3.org/2000/svg">
<path d="M1.52 18.44C1.62667 18.68 1.76667 18.9267 1.94 19.18C2.12667 19.42 2.34667 19.64 2.6 19.84C2.86667 20.04 3.17333 20.2067 3.52 20.34C3.86667 20.46 4.25333 20.52 4.68 20.52C5.12 20.52 5.51333 20.4467 5.86 20.3C6.22 20.14 6.52 19.9333 6.76 19.68C7.01333 19.4133 7.20667 19.1067 7.34 18.76C7.47333 18.4 7.54 18.02 7.54 17.62C7.54 17.0067 7.38 16.52 7.06 16.16C6.75333 15.8 6.36667 15.5 5.9 15.26C5.43333 15.02 4.92667 14.8 4.38 14.6C3.84667 14.4 3.34667 14.1533 2.88 13.86C2.41333 13.5533 2.02 13.1667 1.7 12.7C1.39333 12.2333 1.24 11.6067 1.24 10.82C1.24 10.26 1.34 9.75333 1.54 9.3C1.74 8.83333 2.02667 8.43333 2.4 8.1C2.78667 7.76667 3.24667 7.50667 3.78 7.32C4.31333 7.13333 4.91333 7.04 5.58 7.04C6.22 7.04 6.77333 7.12 7.24 7.28C7.70667 7.42667 8.14 7.66 8.54 7.98C8.42 8.20667 8.32 8.44667 8.24 8.7C8.16 8.95333 8.08 9.27333 8 9.66H7.76C7.69333 9.47333 7.6 9.27333 7.48 9.06C7.37333 8.83333 7.22 8.62667 7.02 8.44C6.83333 8.25333 6.60667 8.1 6.34 7.98C6.07333 7.84667 5.75333 7.78 5.38 7.78C5.00667 7.78 4.66 7.84 4.34 7.96C4.03333 8.08 3.76 8.25333 3.52 8.48C3.29333 8.69333 3.11333 8.95333 2.98 9.26C2.86 9.56667 2.8 9.9 2.8 10.26C2.8 10.8867 2.95333 11.38 3.26 11.74C3.58 12.1 3.97333 12.4067 4.44 12.66C4.90667 12.9 5.40667 13.12 5.94 13.32C6.48667 13.5067 6.99333 13.74 7.46 14.02C7.92667 14.3 8.31333 14.66 8.62 15.1C8.94 15.54 9.1 16.1267 9.1 16.86C9.1 17.4733 8.98667 18.0533 8.76 18.6C8.54667 19.1467 8.22667 19.6267 7.8 20.04C7.38667 20.44 6.87333 20.7533 6.26 20.98C5.66 21.1933 4.97333 21.3 4.2 21.3C3.37333 21.3 2.7 21.1933 2.18 20.98C1.67333 20.7533 1.24667 20.5 0.9 20.22C1.02 19.9133 1.1 19.64 1.14 19.4C1.19333 19.1467 1.24 18.8267 1.28 18.44H1.52ZM11.8 21.04C11.84 20.2133 11.8733 19.3733 11.9 18.52C11.94 17.6667 11.96 16.8 11.96 15.92V12.48C11.96 11.6 11.94 10.74 11.9 9.9C11.8733 9.04667 11.84 8.18 11.8 7.3C11.9733 7.32667 12.14 7.35333 12.3 7.38C12.46 7.39333 12.62 7.4 12.78 7.4C12.94 7.4 13.1 7.39333 13.26 7.38C13.42 7.35333 13.5867 7.32667 13.76 7.3C13.72 8.18 13.68 9.04667 13.64 9.9C13.6133 10.74 13.6 11.6 13.6 12.48V13.58C13.6 13.6867 13.64 13.74 13.72 13.74C13.7733 13.74 13.8667 13.68 14 13.56C14.4667 13.16 14.9533 12.7067 15.46 12.2C15.98 11.6933 16.5 11.1667 17.02 10.62C17.54 10.0733 18.0533 9.52 18.56 8.96C19.0667 8.38667 19.5533 7.83333 20.02 7.3C20.1667 7.32667 20.3067 7.35333 20.44 7.38C20.5733 7.39333 20.7067 7.4 20.84 7.4C21 7.4 21.16 7.39333 21.32 7.38C21.48 7.35333 21.64 7.32667 21.8 7.3C21.3333 7.7 20.8067 8.17333 20.22 8.72C19.6333 9.26667 19.04 9.82667 18.44 10.4C17.8533 10.9733 17.2867 11.54 16.74 12.1C16.2067 12.6467 15.76 13.1267 15.4 13.54C16.48 14.7533 17.5667 15.9933 18.66 17.26C19.7667 18.5133 20.8867 19.7733 22.02 21.04C21.82 21.0133 21.62 21 21.42 21C21.22 21 21.02 21 20.82 21C20.6333 21 20.4467 21 20.26 21C20.0867 21 19.9067 21.0133 19.72 21.04C19.24 20.4933 18.7067 19.8667 18.12 19.16C17.5467 18.4533 16.98 17.7733 16.42 17.12C15.8733 16.4533 15.3733 15.86 14.92 15.34C14.48 14.8067 14.1533 14.4333 13.94 14.22C13.8333 14.1133 13.7533 14.06 13.7 14.06C13.6333 14.06 13.6 14.1 13.6 14.18V15.92C13.6 16.8 13.6133 17.6667 13.64 18.52C13.68 19.3733 13.72 20.2133 13.76 21.04C13.4533 21.0133 13.1267 21 12.78 21C12.4333 21 12.1067 21.0133 11.8 21.04ZM24.1866 12.48C24.1866 11.6 24.1666 10.74 24.1266 9.9C24.0999 9.04667 24.0666 8.18 24.0266 7.3C24.1999 7.32667 24.3666 7.35333 24.5266 7.38C24.6866 7.39333 24.8466 7.4 25.0066 7.4C25.1666 7.4 25.3266 7.39333 25.4866 7.38C25.6466 7.35333 25.8132 7.32667 25.9866 7.3C25.9466 8.18 25.9066 9.04667 25.8666 9.9C25.8399 10.74 25.8266 11.6 25.8266 12.48V15.92C25.8266 16.8 25.8399 17.6667 25.8666 18.52C25.9066 19.3733 25.9466 20.2133 25.9866 21.04C25.6799 21.0133 25.3532 21 25.0066 21C24.6599 21 24.3332 21.0133 24.0266 21.04C24.0666 20.2133 24.0999 19.3733 24.1266 18.52C24.1666 17.6667 24.1866 16.8 24.1866 15.92V12.48ZM41.013 21.3C39.4796 19.5267 37.8463 17.7133 36.113 15.86C34.3796 13.9933 32.6463 12.14 30.913 10.3C30.8996 10.6733 30.8863 11.1733 30.873 11.8C30.8596 12.4267 30.853 13.28 30.853 14.36C30.853 14.64 30.853 14.9867 30.853 15.4C30.8663 15.8133 30.873 16.2467 30.873 16.7C30.8863 17.1533 30.8996 17.6133 30.913 18.08C30.9263 18.5467 30.9396 18.98 30.953 19.38C30.9663 19.78 30.9796 20.1333 30.993 20.44C31.0063 20.7333 31.0196 20.9333 31.033 21.04C30.8196 21.0133 30.5863 21 30.333 21C30.0663 21 29.8196 21.0133 29.593 21.04C29.6196 20.9067 29.6463 20.66 29.673 20.3C29.713 19.94 29.7463 19.5133 29.773 19.02C29.7996 18.5133 29.8263 17.9667 29.853 17.38C29.893 16.7933 29.9196 16.2067 29.933 15.62C29.9596 15.0333 29.9796 14.46 29.993 13.9C30.0063 13.34 30.013 12.84 30.013 12.4C30.013 11.12 30.0063 10.02 29.993 9.1C29.993 8.18 29.9796 7.49333 29.953 7.04H30.273C31.0863 7.92 31.953 8.86667 32.873 9.88C33.8063 10.88 34.7263 11.8733 35.633 12.86C36.553 13.8333 37.4196 14.76 38.233 15.64C39.0596 16.5067 39.7796 17.2467 40.393 17.86V15.14C40.393 13.74 40.3796 12.38 40.353 11.06C40.3396 9.72667 40.2996 8.47333 40.233 7.3C40.4996 7.36667 40.7263 7.4 40.913 7.4C41.073 7.4 41.2863 7.36667 41.553 7.3C41.5263 7.59333 41.493 8.03333 41.453 8.62C41.4263 9.20667 41.393 9.83333 41.353 10.5C41.3263 11.1667 41.2996 11.82 41.273 12.46C41.2463 13.1 41.233 13.6133 41.233 14C41.233 14.3333 41.233 14.7333 41.233 15.2C41.233 15.6533 41.233 16.1267 41.233 16.62C41.2463 17.1133 41.253 17.6133 41.253 18.12C41.2663 18.6133 41.273 19.08 41.273 19.52C41.2863 19.9467 41.293 20.32 41.293 20.64C41.293 20.9333 41.293 21.1533 41.293 21.3H41.013ZM50.8858 12.46C50.8858 11.58 50.8658 10.7133 50.8258 9.86C50.7991 9.00667 50.7658 8.15333 50.7258 7.3C51.3258 7.32667 51.9191 7.35333 52.5058 7.38C53.1058 7.39333 53.7058 7.4 54.3058 7.4C54.9058 7.4 55.4991 7.39333 56.0858 7.38C56.6724 7.35333 57.2658 7.32667 57.8658 7.3C57.8258 7.5 57.8058 7.7 57.8058 7.9C57.8058 8.1 57.8258 8.3 57.8658 8.5C57.4391 8.47333 57.0458 8.44667 56.6858 8.42C56.3391 8.39333 55.9658 8.36667 55.5658 8.34C55.1791 8.31333 54.7524 8.29333 54.2858 8.28C53.8191 8.25333 53.2591 8.24 52.6058 8.24C52.5924 8.66667 52.5724 9.07333 52.5458 9.46C52.5324 9.84667 52.5258 10.2867 52.5258 10.78C52.5258 11.3 52.5258 11.8067 52.5258 12.3C52.5391 12.7933 52.5458 13.1667 52.5458 13.42C53.1324 13.42 53.6591 13.4133 54.1258 13.4C54.5924 13.3867 55.0191 13.3733 55.4058 13.36C55.7924 13.3333 56.1458 13.3133 56.4658 13.3C56.7991 13.2733 57.1124 13.2467 57.4058 13.22C57.3658 13.42 57.3458 13.6267 57.3458 13.84C57.3458 14.04 57.3658 14.24 57.4058 14.44C57.0591 14.4 56.6524 14.3667 56.1858 14.34C55.7324 14.3133 55.2724 14.3 54.8058 14.3C54.3524 14.2867 53.9191 14.28 53.5058 14.28C53.1058 14.2667 52.7858 14.26 52.5458 14.26C52.5458 14.38 52.5391 14.5133 52.5258 14.66C52.5258 14.7933 52.5258 14.9667 52.5258 15.18V15.96V17.16C52.5258 17.92 52.5258 18.5467 52.5258 19.04C52.5391 19.5333 52.5524 19.9067 52.5658 20.16C53.0058 20.16 53.4724 20.16 53.9658 20.16C54.4724 20.16 54.9658 20.1533 55.4458 20.14C55.9391 20.1133 56.3991 20.0867 56.8258 20.06C57.2658 20.02 57.6458 19.9667 57.9658 19.9C57.9391 19.9933 57.9191 20.1 57.9058 20.22C57.9058 20.3267 57.9058 20.4267 57.9058 20.52C57.9058 20.7333 57.9258 20.9067 57.9658 21.04C57.3658 21.0133 56.7658 21 56.1658 21C55.5791 21 54.9791 21 54.3658 21C53.7524 21 53.1458 21 52.5458 21C51.9458 21 51.3391 21.0133 50.7258 21.04C50.7658 20.1867 50.7991 19.34 50.8258 18.5C50.8658 17.6467 50.8858 16.78 50.8858 15.9V12.46ZM71.3058 13.8C71.3058 11.9067 71.2991 10.4467 71.2858 9.42C71.2724 8.39333 71.2391 7.68667 71.1858 7.3C71.3324 7.32667 71.4724 7.35333 71.6058 7.38C71.7391 7.39333 71.8724 7.4 72.0058 7.4C72.1791 7.4 72.3791 7.36667 72.6058 7.3C72.5658 7.76667 72.5258 8.32667 72.4858 8.98C72.4458 9.62 72.4124 10.3133 72.3858 11.06C72.3591 11.7933 72.3324 12.5533 72.3058 13.34C72.2791 14.1133 72.2591 14.8667 72.2458 15.6C72.2324 16.4933 72.0924 17.2933 71.8258 18C71.5724 18.7067 71.2058 19.3067 70.7258 19.8C70.2458 20.2933 69.6524 20.6667 68.9458 20.92C68.2524 21.1733 67.4524 21.3 66.5458 21.3C64.5458 21.3 63.0924 20.8467 62.1858 19.94C61.2791 19.0333 60.8258 17.6 60.8258 15.64C60.8258 15.0133 60.8391 14.46 60.8658 13.98C60.9058 13.4867 60.9258 12.9867 60.9258 12.48C60.9258 11.36 60.9124 10.3667 60.8858 9.5C60.8591 8.63333 60.8324 7.9 60.8058 7.3C60.9658 7.32667 61.1391 7.35333 61.3258 7.38C61.5124 7.39333 61.6858 7.4 61.8458 7.4C61.9924 7.4 62.1324 7.39333 62.2658 7.38C62.4124 7.35333 62.5591 7.32667 62.7058 7.3C62.6791 7.59333 62.6524 7.98 62.6258 8.46C62.5991 8.92667 62.5724 9.46 62.5458 10.06C62.5191 10.66 62.4991 11.3067 62.4858 12C62.4724 12.6933 62.4658 13.4133 62.4658 14.16C62.4658 14.6133 62.4724 15.0867 62.4858 15.58C62.4991 16.06 62.5458 16.5333 62.6258 17C62.7058 17.4533 62.8324 17.8933 63.0058 18.32C63.1924 18.7333 63.4524 19.1 63.7858 19.42C64.1191 19.7267 64.5391 19.9733 65.0458 20.16C65.5524 20.3333 66.1791 20.42 66.9258 20.42C67.6591 20.42 68.2724 20.3133 68.7658 20.1C69.2724 19.8867 69.6858 19.6067 70.0058 19.26C70.3258 18.9133 70.5724 18.5133 70.7458 18.06C70.9324 17.6067 71.0658 17.1333 71.1458 16.64C71.2258 16.1467 71.2724 15.6533 71.2858 15.16C71.2991 14.6667 71.3058 14.2133 71.3058 13.8ZM78.0922 13.98C78.5455 14.0867 79.0189 14.14 79.5122 14.14C79.9255 14.14 80.3522 14.0933 80.7922 14C81.2322 13.9067 81.6322 13.74 81.9922 13.5C82.3655 13.2467 82.6655 12.9067 82.8922 12.48C83.1322 12.04 83.2522 11.48 83.2522 10.8C83.2522 10.2267 83.1722 9.76 83.0122 9.4C82.8522 9.04 82.6255 8.76 82.3322 8.56C82.0522 8.36 81.7055 8.22667 81.2922 8.16C80.8789 8.08 80.4122 8.04 79.8922 8.04H78.0922V13.98ZM76.4522 12.48C76.4522 11.6 76.4322 10.74 76.3922 9.9C76.3655 9.04667 76.3322 8.18 76.2922 7.3C76.6122 7.32667 76.9322 7.35333 77.2522 7.38C77.5855 7.39333 77.9122 7.4 78.2322 7.4C78.3922 7.4 78.5855 7.39333 78.8122 7.38C79.0389 7.36667 79.2655 7.36 79.4922 7.36C79.7322 7.34667 79.9589 7.33333 80.1722 7.32C80.3855 7.30667 80.5655 7.3 80.7122 7.3C80.9122 7.3 81.1589 7.30667 81.4522 7.32C81.7455 7.33333 82.0522 7.37333 82.3722 7.44C82.7055 7.50667 83.0322 7.60667 83.3522 7.74C83.6722 7.87333 83.9589 8.06667 84.2122 8.32C84.4789 8.57333 84.6922 8.89333 84.8522 9.28C85.0122 9.65333 85.0922 10.12 85.0922 10.68C85.0922 11.56 84.8989 12.2733 84.5122 12.82C84.1389 13.3667 83.6722 13.7933 83.1122 14.1C82.5655 14.4067 81.9789 14.6133 81.3522 14.72C80.7389 14.8267 80.1922 14.88 79.7122 14.88C79.4055 14.88 79.1255 14.88 78.8722 14.88C78.6189 14.8667 78.3589 14.8467 78.0922 14.82V15.92C78.0922 16.8 78.1055 17.6667 78.1322 18.52C78.1722 19.3733 78.2122 20.2133 78.2522 21.04C77.9455 21.0133 77.6189 21 77.2722 21C76.9255 21 76.5989 21.0133 76.2922 21.04C76.3322 20.2133 76.3655 19.3733 76.3922 18.52C76.4322 17.6667 76.4522 16.8 76.4522 15.92V12.48ZM97.5655 12.48C97.5655 11.6 97.5455 10.74 97.5055 9.9C97.4788 9.04667 97.4455 8.18 97.4055 7.3C97.5788 7.32667 97.7455 7.35333 97.9055 7.38C98.0655 7.39333 98.2255 7.4 98.3855 7.4C98.5455 7.4 98.7055 7.39333 98.8655 7.38C99.0255 7.35333 99.1921 7.32667 99.3655 7.3C99.3255 8.18 99.2855 9.04667 99.2455 9.9C99.2188 10.74 99.2055 11.6 99.2055 12.48V15.92C99.2055 16.8 99.2188 17.6667 99.2455 18.52C99.2855 19.3733 99.3255 20.2133 99.3655 21.04C99.0588 21.0133 98.7321 21 98.3855 21C98.0388 21 97.7121 21.0133 97.4055 21.04C97.4455 20.2133 97.4788 19.3733 97.5055 18.52C97.5455 17.6667 97.5655 16.8 97.5655 15.92V14.12C96.8455 14.1067 96.1455 14.1 95.4655 14.1C94.7988 14.0867 94.1055 14.08 93.3855 14.08C92.6655 14.08 91.9655 14.0867 91.2855 14.1C90.6188 14.1 89.9255 14.1067 89.2055 14.12V15.92C89.2055 16.8 89.2188 17.6667 89.2455 18.52C89.2855 19.3733 89.3255 20.2133 89.3655 21.04C89.0588 21.0133 88.7321 21 88.3855 21C88.0388 21 87.7121 21.0133 87.4055 21.04C87.4455 20.2133 87.4788 19.3733 87.5055 18.52C87.5455 17.6667 87.5655 16.8 87.5655 15.92V12.48C87.5655 11.6 87.5455 10.74 87.5055 9.9C87.4788 9.04667 87.4455 8.18 87.4055 7.3C87.5788 7.32667 87.7455 7.35333 87.9055 7.38C88.0655 7.39333 88.2255 7.4 88.3855 7.4C88.5455 7.4 88.7055 7.39333 88.8655 7.38C89.0255 7.35333 89.1921 7.32667 89.3655 7.3C89.3255 8.18 89.2855 9.04667 89.2455 9.9C89.2188 10.74 89.2055 11.6 89.2055 12.48V13.18C89.9255 13.1933 90.6188 13.2067 91.2855 13.22C91.9655 13.2333 92.6655 13.24 93.3855 13.24C94.1055 13.24 94.7988 13.2333 95.4655 13.22C96.1455 13.2067 96.8455 13.1933 97.5655 13.18V12.48ZM102.012 14.2C102.012 13.0667 102.192 12.06 102.552 11.18C102.925 10.2867 103.439 9.53333 104.092 8.92C104.759 8.30667 105.552 7.84 106.472 7.52C107.392 7.2 108.399 7.04 109.492 7.04C110.599 7.04 111.612 7.2 112.532 7.52C113.452 7.84 114.239 8.30667 114.892 8.92C115.559 9.53333 116.072 10.2867 116.432 11.18C116.805 12.06 116.992 13.0667 116.992 14.2C116.992 15.3333 116.805 16.3467 116.432 17.24C116.072 18.12 115.559 18.8667 114.892 19.48C114.239 20.0933 113.452 20.5533 112.532 20.86C111.612 21.1533 110.599 21.3 109.492 21.3C108.399 21.3 107.392 21.1533 106.472 20.86C105.552 20.5533 104.759 20.0933 104.092 19.48C103.439 18.8667 102.925 18.12 102.552 17.24C102.192 16.3467 102.012 15.3333 102.012 14.2ZM115.032 14.2C115.032 13.0933 114.892 12.14 114.612 11.34C114.332 10.5267 113.939 9.86 113.432 9.34C112.939 8.80667 112.352 8.41333 111.672 8.16C111.005 7.90667 110.279 7.78 109.492 7.78C108.719 7.78 107.992 7.90667 107.312 8.16C106.645 8.41333 106.059 8.80667 105.552 9.34C105.059 9.86 104.672 10.5267 104.392 11.34C104.112 12.14 103.972 13.0933 103.972 14.2C103.972 15.3067 104.112 16.2667 104.392 17.08C104.672 17.88 105.059 18.5467 105.552 19.08C106.059 19.6 106.645 19.9867 107.312 20.24C107.992 20.4933 108.719 20.62 109.492 20.62C110.279 20.62 111.005 20.4933 111.672 20.24C112.352 19.9867 112.939 19.6 113.432 19.08C113.939 18.5467 114.332 17.88 114.612 17.08C114.892 16.2667 115.032 15.3067 115.032 14.2ZM119.792 12.48C119.792 11.6 119.772 10.74 119.732 9.9C119.705 9.04667 119.672 8.18 119.632 7.3C120.019 7.32667 120.399 7.35333 120.772 7.38C121.145 7.39333 121.525 7.4 121.912 7.4C122.299 7.4 122.679 7.38667 123.052 7.36C123.425 7.32 123.805 7.3 124.192 7.3C124.752 7.3 125.285 7.35333 125.792 7.46C126.299 7.56667 126.739 7.74667 127.112 8C127.499 8.24 127.799 8.56 128.012 8.96C128.239 9.36 128.352 9.86 128.352 10.46C128.352 11.1 128.205 11.6533 127.912 12.12C127.632 12.5733 127.285 12.9533 126.872 13.26C126.459 13.5533 126.012 13.7867 125.532 13.96C125.065 14.12 124.639 14.2267 124.252 14.28C124.412 14.48 124.632 14.76 124.912 15.12C125.192 15.48 125.505 15.88 125.852 16.32C126.199 16.7467 126.559 17.2 126.932 17.68C127.305 18.1467 127.665 18.6 128.012 19.04C128.359 19.4667 128.685 19.86 128.992 20.22C129.299 20.58 129.545 20.8533 129.732 21.04C129.532 21.0133 129.332 21 129.132 21C128.932 21 128.732 21 128.532 21C128.345 21 128.152 21 127.952 21C127.752 21 127.559 21.0133 127.372 21.04C127.172 20.76 126.865 20.34 126.452 19.78C126.052 19.22 125.605 18.62 125.112 17.98C124.619 17.34 124.112 16.7067 123.592 16.08C123.085 15.44 122.619 14.9 122.192 14.46H121.432V15.92C121.432 16.8 121.445 17.6667 121.472 18.52C121.512 19.3733 121.552 20.2133 121.592 21.04C121.285 21.0133 120.959 21 120.612 21C120.265 21 119.939 21.0133 119.632 21.04C119.672 20.2133 119.705 19.3733 119.732 18.52C119.772 17.6667 119.792 16.8 119.792 15.92V12.48ZM121.432 13.62C121.619 13.66 121.819 13.6867 122.032 13.7C122.259 13.7133 122.505 13.72 122.772 13.72C123.185 13.72 123.612 13.6733 124.052 13.58C124.505 13.4867 124.919 13.3267 125.292 13.1C125.665 12.86 125.972 12.5467 126.212 12.16C126.465 11.76 126.592 11.26 126.592 10.66C126.592 10.14 126.492 9.71333 126.292 9.38C126.105 9.03333 125.859 8.76 125.552 8.56C125.245 8.36 124.912 8.22667 124.552 8.16C124.192 8.08 123.839 8.04 123.492 8.04C123.025 8.04 122.639 8.05333 122.332 8.08C122.025 8.09333 121.765 8.11333 121.552 8.14C121.525 8.87333 121.499 9.6 121.472 10.32C121.445 11.04 121.432 11.76 121.432 12.48V13.62ZM132.019 12.48C132.019 11.6 131.999 10.74 131.959 9.9C131.932 9.04667 131.899 8.18 131.859 7.3C132.032 7.32667 132.199 7.35333 132.359 7.38C132.519 7.39333 132.679 7.4 132.839 7.4C132.999 7.4 133.159 7.39333 133.319 7.38C133.479 7.35333 133.645 7.32667 133.819 7.3C133.779 8.18 133.739 9.04667 133.699 9.9C133.672 10.74 133.659 11.6 133.659 12.48V15.92C133.659 16.8 133.672 17.6667 133.699 18.52C133.739 19.3733 133.779 20.2133 133.819 21.04C133.512 21.0133 133.185 21 132.839 21C132.492 21 132.165 21.0133 131.859 21.04C131.899 20.2133 131.932 19.3733 131.959 18.52C131.999 17.6667 132.019 16.8 132.019 15.92V12.48ZM139.765 14.82C140.112 14.82 140.472 14.8267 140.845 14.84C141.218 14.8533 141.578 14.86 141.925 14.86C142.298 14.86 142.672 14.86 143.045 14.86C143.418 14.8467 143.792 14.8333 144.165 14.82L141.945 9.74L139.765 14.82ZM148.625 21.04C148.438 21.0133 148.258 21 148.085 21C147.925 21 147.752 21 147.565 21C147.378 21 147.198 21 147.025 21C146.865 21 146.692 21.0133 146.505 21.04C146.412 20.7333 146.285 20.3667 146.125 19.94C145.965 19.5 145.785 19.0467 145.585 18.58C145.398 18.1 145.205 17.62 145.005 17.14C144.805 16.6467 144.618 16.18 144.445 15.74C144.018 15.7267 143.585 15.72 143.145 15.72C142.705 15.7067 142.265 15.7 141.825 15.7C141.412 15.7 141.005 15.7067 140.605 15.72C140.205 15.72 139.798 15.7267 139.385 15.74C138.958 16.78 138.572 17.7733 138.225 18.72C137.878 19.6533 137.618 20.4267 137.445 21.04C137.218 21.0133 136.972 21 136.705 21C136.438 21 136.192 21.0133 135.965 21.04C137.045 18.7067 138.098 16.3867 139.125 14.08C140.152 11.7733 141.185 9.42667 142.225 7.04H142.605C142.925 7.81333 143.272 8.65333 143.645 9.56C144.018 10.4533 144.398 11.36 144.785 12.28C145.172 13.2 145.558 14.1133 145.945 15.02C146.332 15.9267 146.692 16.7733 147.025 17.56C147.372 18.3333 147.678 19.0267 147.945 19.64C148.225 20.2533 148.452 20.72 148.625 21.04Z" fill="#3C2A18"/>
<path d="M4.78125 29.2891H6.39844C7.11198 29.2891 7.64844 29.3958 8.00781 29.6094C8.36719 29.8229 8.54688 30.1862 8.54688 30.6992C8.54688 30.9206 8.50391 31.1198 8.41797 31.2969C8.33464 31.4714 8.21224 31.6159 8.05078 31.7305C7.88932 31.8451 7.6901 31.9245 7.45312 31.9688V32.0078C7.70312 32.0469 7.92448 32.1185 8.11719 32.2227C8.3099 32.3268 8.46094 32.4727 8.57031 32.6602C8.67969 32.8477 8.73438 33.0859 8.73438 33.375C8.73438 33.7266 8.65234 34.0234 8.48828 34.2656C8.32682 34.5078 8.09766 34.6914 7.80078 34.8164C7.50391 34.9388 7.15234 35 6.74609 35H4.78125V29.2891ZM5.44531 31.7383H6.53906C7.03646 31.7383 7.38021 31.6562 7.57031 31.4922C7.76302 31.3281 7.85938 31.0885 7.85938 30.7734C7.85938 30.4479 7.74479 30.2135 7.51562 30.0703C7.28906 29.9271 6.92708 29.8555 6.42969 29.8555H5.44531V31.7383ZM5.44531 32.2969V34.4336H6.63281C7.14062 34.4336 7.5 34.3346 7.71094 34.1367C7.92188 33.9362 8.02734 33.6667 8.02734 33.3281C8.02734 33.112 7.97917 32.9271 7.88281 32.7734C7.78906 32.6198 7.63542 32.5026 7.42188 32.4219C7.21094 32.3385 6.92839 32.2969 6.57422 32.2969H5.44531ZM19.5328 35H16.3531V29.2891H19.5328V29.875H17.0172V31.7227H19.3883V32.3008H17.0172V34.4141H19.5328V35ZM30.7805 35L30.0773 33.1875H27.7883L27.0891 35H26.4172L28.6516 29.2656H29.2492L31.468 35H30.7805ZM29.8781 32.5977L29.2102 30.7969C29.1945 30.75 29.1685 30.6732 29.132 30.5664C29.0982 30.4596 29.063 30.349 29.0266 30.2344C28.9901 30.1198 28.9602 30.0273 28.9367 29.957C28.9107 30.0638 28.882 30.1706 28.8508 30.2773C28.8221 30.3815 28.7935 30.4792 28.7648 30.5703C28.7362 30.6589 28.7115 30.7344 28.6906 30.7969L28.0109 32.5977H29.8781ZM42.9813 29.2891V32.9844C42.9813 33.388 42.8992 33.7474 42.7352 34.0625C42.5737 34.3776 42.3289 34.6263 42.0008 34.8086C41.6727 34.9883 41.2612 35.0781 40.7664 35.0781C40.0607 35.0781 39.5229 34.8867 39.1531 34.5039C38.7859 34.1211 38.6023 33.6094 38.6023 32.9688V29.2891H39.2703V32.9883C39.2703 33.4727 39.3979 33.8464 39.6531 34.1094C39.9109 34.3724 40.2951 34.5039 40.8055 34.5039C41.1544 34.5039 41.4396 34.4414 41.6609 34.3164C41.8849 34.1888 42.0503 34.0117 42.157 33.7852C42.2664 33.556 42.3211 33.2917 42.3211 32.9922V29.2891H42.9813ZM52.6508 35H51.9828V29.875H50.1859V29.2891H54.4398V29.875H52.6508V35ZM63.1602 32.1523L64.6797 29.2891H65.3945L63.4922 32.7852V35H62.8281V32.8164L60.9219 29.2891H61.6484L63.1602 32.1523ZM82.7102 29.1992C82.9914 29.1992 83.2336 29.2487 83.4367 29.3477C83.6425 29.444 83.8 29.5833 83.9094 29.7656C84.0214 29.9479 84.0773 30.168 84.0773 30.4258C84.0773 30.7643 83.9667 31.0508 83.7453 31.2852C83.5266 31.5195 83.2479 31.7331 82.9094 31.9258L84.4953 33.4648C84.6385 33.2982 84.7557 33.1055 84.8469 32.8867C84.938 32.6654 85.0148 32.4258 85.0773 32.168H85.7336C85.6503 32.5117 85.5422 32.8281 85.4094 33.1172C85.2792 33.4062 85.1151 33.6602 84.9172 33.8789L86.0617 35H85.1828L84.4758 34.3086C84.3091 34.4622 84.1294 34.5977 83.9367 34.7148C83.7466 34.8294 83.5344 34.9193 83.3 34.9844C83.0682 35.0469 82.8026 35.0781 82.5031 35.0781C82.1385 35.0781 81.8221 35.0182 81.5539 34.8984C81.2857 34.7786 81.0773 34.6029 80.9289 34.3711C80.7831 34.1393 80.7102 33.8555 80.7102 33.5195C80.7102 33.2435 80.7609 33.0065 80.8625 32.8086C80.9641 32.6107 81.1086 32.4349 81.2961 32.2812C81.4836 32.1276 81.7076 31.9779 81.968 31.832C81.8456 31.6966 81.7297 31.5599 81.6203 31.4219C81.5109 31.2812 81.4224 31.1315 81.3547 30.9727C81.287 30.8112 81.2531 30.6341 81.2531 30.4414C81.2531 30.181 81.3117 29.9583 81.4289 29.7734C81.5487 29.5885 81.7167 29.4466 81.9328 29.3477C82.1516 29.2487 82.4107 29.1992 82.7102 29.1992ZM82.3586 32.2422C82.1555 32.3594 81.981 32.4753 81.8352 32.5898C81.6919 32.7044 81.5813 32.8333 81.5031 32.9766C81.4276 33.1198 81.3898 33.293 81.3898 33.4961C81.3898 33.8008 81.4927 34.0456 81.6984 34.2305C81.9042 34.4128 82.1789 34.5039 82.5227 34.5039C82.8768 34.5039 83.1776 34.4453 83.425 34.3281C83.675 34.2109 83.8872 34.069 84.0617 33.9023L82.3586 32.2422ZM82.6867 29.7344C82.4497 29.7344 82.257 29.7969 82.1086 29.9219C81.9628 30.0443 81.8898 30.2161 81.8898 30.4375C81.8898 30.6354 81.9432 30.8177 82.05 30.9844C82.1568 31.151 82.3091 31.3359 82.507 31.5391C82.8326 31.3594 83.0682 31.1862 83.2141 31.0195C83.3625 30.8503 83.4367 30.6523 83.4367 30.4258C83.4367 30.2201 83.3677 30.0534 83.2297 29.9258C83.0943 29.7982 82.9133 29.7344 82.6867 29.7344ZM104.205 32.0078H106.202V34.7773C105.902 34.8789 105.593 34.9544 105.276 35.0039C104.961 35.0534 104.608 35.0781 104.217 35.0781C103.623 35.0781 103.122 34.9596 102.713 34.7227C102.307 34.4857 101.998 34.1484 101.787 33.7109C101.577 33.2708 101.471 32.7487 101.471 32.1445C101.471 31.5534 101.587 31.0378 101.819 30.5977C102.053 30.1576 102.39 29.8164 102.83 29.5742C103.273 29.3294 103.804 29.207 104.424 29.207C104.742 29.207 105.043 29.237 105.327 29.2969C105.613 29.3542 105.879 29.4362 106.123 29.543L105.87 30.1211C105.659 30.0299 105.426 29.9518 105.17 29.8867C104.918 29.8216 104.656 29.7891 104.385 29.7891C103.919 29.7891 103.519 29.8854 103.186 30.0781C102.855 30.2708 102.601 30.543 102.424 30.8945C102.25 31.2461 102.162 31.6628 102.162 32.1445C102.162 32.6211 102.239 33.0365 102.393 33.3906C102.547 33.7422 102.786 34.0156 103.112 34.2109C103.437 34.4062 103.857 34.5039 104.37 34.5039C104.627 34.5039 104.849 34.4896 105.034 34.4609C105.218 34.4297 105.386 34.3932 105.537 34.3516V32.6016H104.205V32.0078ZM113.984 35V29.2891H114.648V34.4062H117.184V35H113.984ZM129.517 32.1367C129.517 32.5768 129.461 32.9779 129.349 33.3398C129.237 33.6992 129.071 34.0091 128.849 34.2695C128.63 34.5273 128.358 34.7266 128.033 34.8672C127.707 35.0078 127.33 35.0781 126.9 35.0781C126.457 35.0781 126.071 35.0078 125.74 34.8672C125.412 34.7266 125.138 34.526 124.92 34.2656C124.703 34.0052 124.541 33.694 124.431 33.332C124.324 32.9701 124.271 32.569 124.271 32.1289C124.271 31.5456 124.367 31.0339 124.56 30.5938C124.753 30.1536 125.045 29.8112 125.435 29.5664C125.828 29.3216 126.321 29.1992 126.912 29.1992C127.477 29.1992 127.952 29.3203 128.338 29.5625C128.726 29.8047 129.018 30.1458 129.216 30.5859C129.417 31.0234 129.517 31.5404 129.517 32.1367ZM124.97 32.1367C124.97 32.6211 125.039 33.0404 125.177 33.3945C125.315 33.7487 125.526 34.0221 125.81 34.2148C126.097 34.4076 126.46 34.5039 126.9 34.5039C127.343 34.5039 127.705 34.4076 127.986 34.2148C128.27 34.0221 128.479 33.7487 128.615 33.3945C128.75 33.0404 128.818 32.6211 128.818 32.1367C128.818 31.3997 128.663 30.8242 128.353 30.4102C128.046 29.9935 127.565 29.7852 126.912 29.7852C126.469 29.7852 126.104 29.8802 125.818 30.0703C125.532 30.2604 125.318 30.5312 125.177 30.8828C125.039 31.2318 124.97 31.6497 124.97 32.1367ZM143.679 29.2891L142.152 35H141.484L140.351 31.1562C140.317 31.0469 140.284 30.9375 140.253 30.8281C140.224 30.7161 140.197 30.6107 140.171 30.5117C140.145 30.4102 140.123 30.3216 140.105 30.2461C140.089 30.168 140.077 30.1094 140.07 30.0703C140.064 30.1094 140.054 30.1667 140.038 30.2422C140.025 30.3177 140.007 30.4049 139.984 30.5039C139.963 30.6029 139.937 30.7083 139.905 30.8203C139.877 30.9323 139.846 31.0456 139.812 31.1602L138.71 35H138.042L136.527 29.2891H137.218L138.136 32.8711C138.167 32.9909 138.196 33.1094 138.222 33.2266C138.251 33.3411 138.275 33.4531 138.296 33.5625C138.32 33.6719 138.34 33.7786 138.359 33.8828C138.377 33.987 138.394 34.0885 138.409 34.1875C138.422 34.0859 138.439 33.9805 138.46 33.8711C138.481 33.7591 138.503 33.6458 138.527 33.5312C138.553 33.4167 138.58 33.3008 138.609 33.1836C138.64 33.0664 138.672 32.9492 138.706 32.832L139.734 29.2891H140.417L141.488 32.8594C141.524 32.9818 141.558 33.1029 141.589 33.2227C141.62 33.3424 141.648 33.4596 141.671 33.5742C141.697 33.6862 141.719 33.7943 141.738 33.8984C141.758 34 141.777 34.0964 141.792 34.1875C141.81 34.0599 141.833 33.9258 141.859 33.7852C141.885 33.6445 141.915 33.4974 141.948 33.3438C141.985 33.1901 142.024 33.0312 142.066 32.8672L142.984 29.2891H143.679Z" fill="#3C2A18"/>
</svg>
