<svg width="18" height="14" viewBox="0 0 18 14" fill="none" xmlns="http://www.w3.org/2000/svg">
<path d="M4.56738 13.4902H3.81055C2.83398 13.4902 2.02018 13.0996 1.36914 12.3184C0.734375 11.5208 0.416992 10.3652 0.416992 8.85156L0.441406 8.65625V8.46094C0.441406 6.55664 1.09245 4.74186 2.39453 3.0166C3.69661 1.27507 4.88477 0.404297 5.95898 0.404297H6.25195C6.75651 0.404297 7.00879 0.754232 7.00879 1.4541L5.49512 3.48047C4.84408 4.3431 4.51855 5.18945 4.51855 6.01953C4.51855 6.49154 4.9987 7.16699 5.95898 8.0459C6.93555 8.90853 7.42383 9.69792 7.42383 10.4141V10.7559C7.42383 11.5371 7.09831 12.1882 6.44727 12.709C5.8125 13.2298 5.18587 13.4902 4.56738 13.4902ZM10.0117 9.02246V8.65625C10.0117 6.6543 10.6628 4.78255 11.9648 3.04102C13.2832 1.2832 14.5202 0.404297 15.6758 0.404297C16.278 0.404297 16.5791 0.713542 16.5791 1.33203C16.5791 1.44596 16.1641 2.04818 15.334 3.13867C14.5202 4.22917 14.1133 5.23828 14.1133 6.16602C14.1133 6.52409 14.5934 7.14258 15.5537 8.02148C16.5303 8.88411 17.0186 9.68164 17.0186 10.4141V10.7559C17.0186 11.5208 16.693 12.1637 16.042 12.6846C15.4072 13.2054 14.7725 13.4658 14.1377 13.4658H13.3809C12.4206 13.4658 11.6149 13.0752 10.9639 12.2939C10.3291 11.5127 10.0117 10.4222 10.0117 9.02246Z" fill="#3C2A18"/>
</svg>
